<mxfile host="Electron" modified="2024-06-15T16:00:53.920Z" agent="Mozilla/5.0 (Windows NT 10.0; Win64; x64) AppleWebKit/537.36 (KHTML, like Gecko) draw.io/23.1.5 Chrome/120.0.6099.109 Electron/28.1.0 Safari/537.36" etag="9z51K8momYv2Yru5oKyK" version="23.1.5" type="device">
  <diagram id="tf6NbBMTu9ufZcQEqrKR" name="Page-1">
    <mxGraphModel dx="3217" dy="304" grid="1" gridSize="10" guides="1" tooltips="1" connect="1" arrows="1" fold="1" page="1" pageScale="1" pageWidth="827" pageHeight="1169" math="0" shadow="0">
      <root>
        <mxCell id="0" />
        <mxCell id="1" parent="0" />
        <mxCell id="2" value="" style="rounded=0;whiteSpace=wrap;html=1;strokeColor=#000000;strokeWidth=1;fontSize=26;fontColor=#000000;fillColor=none;" parent="1" vertex="1">
          <mxGeometry x="60" y="2290" width="708" height="40" as="geometry" />
        </mxCell>
        <mxCell id="3" value="" style="endArrow=none;dashed=1;html=1;dashPattern=1 3;strokeWidth=2;rounded=0;" parent="1" edge="1">
          <mxGeometry width="50" height="50" relative="1" as="geometry">
            <mxPoint y="1170" as="sourcePoint" />
            <mxPoint x="830" y="1170" as="targetPoint" />
          </mxGeometry>
        </mxCell>
        <mxCell id="4" value="" style="endArrow=none;dashed=1;html=1;dashPattern=1 3;strokeWidth=2;rounded=0;" parent="1" edge="1">
          <mxGeometry width="50" height="50" relative="1" as="geometry">
            <mxPoint x="1.1368683772161603e-13" y="2340" as="sourcePoint" />
            <mxPoint x="830" y="2340" as="targetPoint" />
          </mxGeometry>
        </mxCell>
        <mxCell id="5" value="" style="endArrow=none;dashed=1;html=1;dashPattern=1 3;strokeWidth=2;rounded=0;" parent="1" edge="1">
          <mxGeometry width="50" height="50" relative="1" as="geometry">
            <mxPoint y="1170" as="sourcePoint" />
            <mxPoint y="2340" as="targetPoint" />
          </mxGeometry>
        </mxCell>
        <mxCell id="6" value="" style="endArrow=none;dashed=1;html=1;dashPattern=1 3;strokeWidth=2;rounded=0;" parent="1" edge="1">
          <mxGeometry width="50" height="50" relative="1" as="geometry">
            <mxPoint x="830" y="1169" as="sourcePoint" />
            <mxPoint x="830" y="2339" as="targetPoint" />
          </mxGeometry>
        </mxCell>
        <mxCell id="7" value="&lt;b style=&quot;font-size: 15px;&quot;&gt;&lt;font color=&quot;#ff0000&quot; style=&quot;font-size: 15px;&quot;&gt;DIFFUSION RESTREINTE&lt;/font&gt;&lt;/b&gt;" style="rounded=0;whiteSpace=wrap;html=1;fillColor=none;strokeWidth=5;strokeColor=#FF0000;fontSize=15;" parent="1" vertex="1">
          <mxGeometry x="293.5" y="1190" width="240" height="50" as="geometry" />
        </mxCell>
        <mxCell id="8" value="&lt;b style=&quot;font-size: 15px;&quot;&gt;&lt;font color=&quot;#ff0000&quot; style=&quot;font-size: 15px;&quot;&gt;DIFFUSION RESTREINTE&lt;/font&gt;&lt;/b&gt;" style="rounded=0;whiteSpace=wrap;html=1;fillColor=none;strokeWidth=5;strokeColor=#FF0000;fontSize=15;" parent="1" vertex="1">
          <mxGeometry x="294" y="2290" width="240" height="40" as="geometry" />
        </mxCell>
        <mxCell id="9" value="Titre du document" style="text;html=1;strokeColor=none;fillColor=none;align=center;verticalAlign=middle;whiteSpace=wrap;rounded=0;fontSize=26;fontColor=#000000;fontStyle=1" parent="1" vertex="1">
          <mxGeometry x="219" y="1320" width="390" height="100" as="geometry" />
        </mxCell>
        <mxCell id="10" value="Logo" style="rounded=0;whiteSpace=wrap;html=1;strokeColor=#000000;strokeWidth=1;fontSize=26;fontColor=#000000;fillColor=none;" parent="1" vertex="1">
          <mxGeometry x="20" y="1190" width="110" height="50" as="geometry" />
        </mxCell>
        <mxCell id="11" value="" style="endArrow=none;dashed=1;html=1;dashPattern=1 3;strokeWidth=2;rounded=0;fontSize=26;fontColor=#000000;" parent="1" edge="1">
          <mxGeometry width="50" height="50" relative="1" as="geometry">
            <mxPoint x="60" y="2330" as="sourcePoint" />
            <mxPoint x="60" y="1250" as="targetPoint" />
          </mxGeometry>
        </mxCell>
        <mxCell id="12" value="" style="endArrow=none;dashed=1;html=1;dashPattern=1 3;strokeWidth=2;rounded=0;fontSize=26;fontColor=#000000;" parent="1" edge="1">
          <mxGeometry width="50" height="50" relative="1" as="geometry">
            <mxPoint x="768" y="2330" as="sourcePoint" />
            <mxPoint x="768" y="1250" as="targetPoint" />
          </mxGeometry>
        </mxCell>
        <mxCell id="13" value="Logo" style="rounded=0;whiteSpace=wrap;html=1;strokeColor=#000000;strokeWidth=1;fontSize=26;fontColor=#000000;fillColor=none;" parent="1" vertex="1">
          <mxGeometry x="690" y="1190" width="110" height="50" as="geometry" />
        </mxCell>
        <mxCell id="14" value="&lt;h1 style=&quot;border-color: var(--border-color); text-align: left; line-height: 10.4px;&quot;&gt;&lt;font style=&quot;border-color: var(--border-color); font-size: 12px; font-weight: normal;&quot;&gt;Lorem ipsum dolor sit amet, consectetur adipisicing elit, sed do eiusmod tempor.&lt;/font&gt;&lt;/h1&gt;" style="text;html=1;strokeColor=none;fillColor=none;align=center;verticalAlign=middle;whiteSpace=wrap;rounded=0;fontSize=12;fontColor=#000000;" parent="1" vertex="1">
          <mxGeometry x="540" y="2295" width="220" height="30" as="geometry" />
        </mxCell>
        <mxCell id="15" value="&lt;h1 style=&quot;border-color: var(--border-color); text-align: left; line-height: 10.4px;&quot;&gt;&lt;font style=&quot;border-color: var(--border-color); font-size: 12px; font-weight: normal;&quot;&gt;Lorem ipsum dolor sit amet, consectetur adipisicing elit, sed do eiusmod tempor.&lt;/font&gt;&lt;/h1&gt;" style="text;html=1;strokeColor=none;fillColor=none;align=center;verticalAlign=middle;whiteSpace=wrap;rounded=0;fontSize=12;fontColor=#000000;" parent="1" vertex="1">
          <mxGeometry x="65" y="2295" width="220" height="30" as="geometry" />
        </mxCell>
        <mxCell id="16" value="" style="group" parent="1" vertex="1" connectable="0">
          <mxGeometry x="294" y="1440" width="240" height="90" as="geometry" />
        </mxCell>
        <mxCell id="17" value="&lt;b style=&quot;font-size: 26px;&quot;&gt;&lt;font color=&quot;#ff0000&quot; style=&quot;font-size: 26px;&quot;&gt;DIFFUSION RESTREINTE&lt;/font&gt;&lt;/b&gt;" style="rounded=0;whiteSpace=wrap;html=1;fillColor=none;strokeWidth=5;strokeColor=#FF0000;fontSize=26;" parent="16" vertex="1">
          <mxGeometry width="240" height="90" as="geometry" />
        </mxCell>
        <mxCell id="18" style="edgeStyle=orthogonalEdgeStyle;rounded=0;orthogonalLoop=1;jettySize=auto;html=1;entryX=0;entryY=0.5;entryDx=0;entryDy=0;strokeColor=#808080;fontSize=26;fontColor=#000000;startArrow=none;startFill=0;sourcePerimeterSpacing=0;targetPerimeterSpacing=0;dashed=1;strokeWidth=2;" parent="1" source="19" target="20" edge="1">
          <mxGeometry relative="1" as="geometry" />
        </mxCell>
        <mxCell id="19" value="" style="rounded=0;whiteSpace=wrap;html=1;strokeColor=#808080;strokeWidth=2;fontSize=26;fontColor=#000000;fillColor=none;dashed=1;" parent="1" vertex="1">
          <mxGeometry x="60" y="1420" width="710" height="130" as="geometry" />
        </mxCell>
        <mxCell id="20" value="Zone pour tampons de protections" style="text;html=1;strokeColor=none;fillColor=none;align=center;verticalAlign=middle;whiteSpace=wrap;rounded=0;fontSize=16;fontColor=#000000;" parent="1" vertex="1">
          <mxGeometry x="880" y="1457.5" width="240" height="55" as="geometry" />
        </mxCell>
        <mxCell id="21" value="" style="group" parent="1" vertex="1" connectable="0">
          <mxGeometry x="880" y="1680" width="240" height="90" as="geometry" />
        </mxCell>
        <mxCell id="22" value="&lt;b style=&quot;font-size: 26px;&quot;&gt;&lt;font color=&quot;#ff0000&quot; style=&quot;font-size: 26px;&quot;&gt;DIFFUSION RESTREINTE&lt;/font&gt;&lt;/b&gt;" style="rounded=0;whiteSpace=wrap;html=1;fillColor=none;strokeWidth=5;strokeColor=#FF0000;fontSize=26;" parent="21" vertex="1">
          <mxGeometry width="240" height="90" as="geometry" />
        </mxCell>
        <mxCell id="23" value="" style="group" parent="1" vertex="1" connectable="0">
          <mxGeometry x="880" y="1920" width="240" height="90" as="geometry" />
        </mxCell>
        <mxCell id="24" value="&lt;b style=&quot;font-size: 26px;&quot;&gt;&lt;font color=&quot;#ff0000&quot; style=&quot;font-size: 26px;&quot;&gt;SECRET&lt;/font&gt;&lt;/b&gt;" style="rounded=0;whiteSpace=wrap;html=1;fillColor=none;strokeWidth=5;strokeColor=#FF0000;fontSize=26;" parent="23" vertex="1">
          <mxGeometry width="240" height="90" as="geometry" />
        </mxCell>
        <mxCell id="25" value="" style="group" parent="1" vertex="1" connectable="0">
          <mxGeometry x="880" y="2040" width="240" height="90" as="geometry" />
        </mxCell>
        <mxCell id="26" value="&lt;b style=&quot;font-size: 26px;&quot;&gt;&lt;font color=&quot;#ff0000&quot; style=&quot;font-size: 26px;&quot;&gt;TRES SECRET&lt;/font&gt;&lt;/b&gt;" style="rounded=0;whiteSpace=wrap;html=1;fillColor=none;strokeWidth=5;strokeColor=#FF0000;fontSize=26;" parent="25" vertex="1">
          <mxGeometry width="240" height="90" as="geometry" />
        </mxCell>
        <mxCell id="27" value="&lt;b style=&quot;font-size: 26px;&quot;&gt;&lt;font style=&quot;font-size: 26px;&quot;&gt;SPECIAL&lt;br&gt;FRANCE&lt;/font&gt;&lt;/b&gt;" style="rounded=0;whiteSpace=wrap;html=1;fillColor=none;strokeWidth=5;strokeColor=#0000FF;fontSize=26;container=0;fontColor=#0000FF;" parent="1" vertex="1">
          <mxGeometry x="880" y="1800" width="240" height="90" as="geometry" />
        </mxCell>
        <mxCell id="28" value="&lt;b style=&quot;font-size: 26px;&quot;&gt;&lt;font style=&quot;font-size: 26px;&quot;&gt;SPECIAL&lt;br&gt;INDUSTRIE&lt;/font&gt;&lt;/b&gt;" style="rounded=0;whiteSpace=wrap;html=1;fillColor=none;strokeWidth=5;strokeColor=#9933FF;fontSize=26;container=0;fontColor=#9933FF;" parent="1" vertex="1">
          <mxGeometry x="880" y="1560" width="240" height="90" as="geometry" />
        </mxCell>
        <mxCell id="29" value="" style="rounded=0;whiteSpace=wrap;html=1;strokeColor=#000000;strokeWidth=1;fontSize=26;fontColor=#000000;fillColor=none;" parent="1" vertex="1">
          <mxGeometry x="65" y="1570" width="695" height="170" as="geometry" />
        </mxCell>
        <mxCell id="30" value="N° ARCHIVE INFORMATIQUE" style="rounded=0;whiteSpace=wrap;html=1;strokeColor=#000000;strokeWidth=1;fontSize=16;fontColor=#000000;fillColor=none;" parent="1" vertex="1">
          <mxGeometry x="65" y="2250" width="695" height="30" as="geometry" />
        </mxCell>
        <mxCell id="31" value="" style="rounded=0;whiteSpace=wrap;html=1;strokeColor=#000000;strokeWidth=1;fontSize=16;fontColor=#9933FF;fillColor=none;" parent="1" vertex="1">
          <mxGeometry x="87.5" y="1940" width="180" height="80" as="geometry" />
        </mxCell>
        <mxCell id="32" value="" style="rounded=0;whiteSpace=wrap;html=1;strokeColor=#000000;strokeWidth=1;fontSize=16;fontColor=#9933FF;fillColor=none;" parent="1" vertex="1">
          <mxGeometry x="325" y="1940" width="180" height="80" as="geometry" />
        </mxCell>
        <mxCell id="33" value="" style="rounded=0;whiteSpace=wrap;html=1;strokeColor=#000000;strokeWidth=1;fontSize=16;fontColor=#9933FF;fillColor=none;" parent="1" vertex="1">
          <mxGeometry x="562.5" y="1940" width="180" height="80" as="geometry" />
        </mxCell>
        <mxCell id="34" value="Auteur" style="text;html=1;strokeColor=none;fillColor=none;align=center;verticalAlign=middle;whiteSpace=wrap;rounded=0;fontSize=16;fontColor=#000000;" parent="1" vertex="1">
          <mxGeometry x="87.5" y="1910" width="180" height="30" as="geometry" />
        </mxCell>
        <mxCell id="35" value="Vérificateur" style="text;html=1;strokeColor=none;fillColor=none;align=center;verticalAlign=middle;whiteSpace=wrap;rounded=0;fontSize=16;fontColor=#000000;" parent="1" vertex="1">
          <mxGeometry x="325" y="1910" width="180" height="30" as="geometry" />
        </mxCell>
        <mxCell id="36" value="Approbateur" style="text;html=1;strokeColor=none;fillColor=none;align=center;verticalAlign=middle;whiteSpace=wrap;rounded=0;fontSize=16;fontColor=#000000;" parent="1" vertex="1">
          <mxGeometry x="562.5" y="1910" width="180" height="30" as="geometry" />
        </mxCell>
        <mxCell id="37" value="" style="rounded=0;whiteSpace=wrap;html=1;strokeColor=#000000;strokeWidth=1;fontSize=26;fontColor=#000000;fillColor=none;" parent="1" vertex="1">
          <mxGeometry x="65" y="2040" width="695" height="200" as="geometry" />
        </mxCell>
        <mxCell id="38" value="Suivi des évolutions" style="shape=table;startSize=30;container=1;collapsible=0;childLayout=tableLayout;strokeColor=default;fontSize=16;strokeWidth=1;fontColor=#000000;fillColor=none;" parent="1" vertex="1">
          <mxGeometry x="65" y="2040" width="695" height="200" as="geometry" />
        </mxCell>
        <mxCell id="39" value="" style="shape=tableRow;horizontal=0;startSize=0;swimlaneHead=0;swimlaneBody=0;strokeColor=inherit;top=0;left=0;bottom=0;right=0;collapsible=0;dropTarget=0;fillColor=none;points=[[0,0.5],[1,0.5]];portConstraint=eastwest;fontSize=16;strokeWidth=1;fontColor=#000000;" parent="38" vertex="1">
          <mxGeometry y="30" width="695" height="24" as="geometry" />
        </mxCell>
        <mxCell id="40" value="Indice" style="shape=partialRectangle;html=1;whiteSpace=wrap;connectable=0;strokeColor=inherit;overflow=hidden;fillColor=none;top=0;left=0;bottom=0;right=0;pointerEvents=1;fontSize=16;strokeWidth=1;fontColor=#000000;" parent="39" vertex="1">
          <mxGeometry width="57" height="24" as="geometry">
            <mxRectangle width="57" height="24" as="alternateBounds" />
          </mxGeometry>
        </mxCell>
        <mxCell id="41" value="Date" style="shape=partialRectangle;html=1;whiteSpace=wrap;connectable=0;strokeColor=inherit;overflow=hidden;fillColor=none;top=0;left=0;bottom=0;right=0;pointerEvents=1;fontSize=16;strokeWidth=1;fontColor=#000000;" parent="39" vertex="1">
          <mxGeometry x="57" width="57" height="24" as="geometry">
            <mxRectangle width="57" height="24" as="alternateBounds" />
          </mxGeometry>
        </mxCell>
        <mxCell id="42" value="Nature" style="shape=partialRectangle;html=1;whiteSpace=wrap;connectable=0;strokeColor=inherit;overflow=hidden;fillColor=none;top=0;left=0;bottom=0;right=0;pointerEvents=1;fontSize=16;strokeWidth=1;fontColor=#000000;" parent="39" vertex="1">
          <mxGeometry x="114" width="420" height="24" as="geometry">
            <mxRectangle width="420" height="24" as="alternateBounds" />
          </mxGeometry>
        </mxCell>
        <mxCell id="43" value="Auteur" style="shape=partialRectangle;html=1;whiteSpace=wrap;connectable=0;strokeColor=inherit;overflow=hidden;fillColor=none;top=0;left=0;bottom=0;right=0;pointerEvents=1;fontSize=16;strokeWidth=1;fontColor=#000000;" parent="39" vertex="1">
          <mxGeometry x="534" width="54" height="24" as="geometry">
            <mxRectangle width="54" height="24" as="alternateBounds" />
          </mxGeometry>
        </mxCell>
        <mxCell id="44" value="Verif." style="shape=partialRectangle;html=1;whiteSpace=wrap;connectable=0;strokeColor=inherit;overflow=hidden;fillColor=none;top=0;left=0;bottom=0;right=0;pointerEvents=1;fontSize=16;strokeWidth=1;fontColor=#000000;" parent="39" vertex="1">
          <mxGeometry x="588" width="54" height="24" as="geometry">
            <mxRectangle width="54" height="24" as="alternateBounds" />
          </mxGeometry>
        </mxCell>
        <mxCell id="45" value="Appro." style="shape=partialRectangle;html=1;whiteSpace=wrap;connectable=0;strokeColor=inherit;overflow=hidden;fillColor=none;top=0;left=0;bottom=0;right=0;pointerEvents=1;fontSize=16;strokeWidth=1;fontColor=#000000;" parent="39" vertex="1">
          <mxGeometry x="642" width="53" height="24" as="geometry">
            <mxRectangle width="53" height="24" as="alternateBounds" />
          </mxGeometry>
        </mxCell>
        <mxCell id="46" value="" style="shape=tableRow;horizontal=0;startSize=0;swimlaneHead=0;swimlaneBody=0;strokeColor=inherit;top=0;left=0;bottom=0;right=0;collapsible=0;dropTarget=0;fillColor=none;points=[[0,0.5],[1,0.5]];portConstraint=eastwest;fontSize=16;strokeWidth=1;fontColor=#000000;" parent="38" vertex="1">
          <mxGeometry y="54" width="695" height="24" as="geometry" />
        </mxCell>
        <mxCell id="47" value="" style="shape=partialRectangle;html=1;whiteSpace=wrap;connectable=0;strokeColor=inherit;overflow=hidden;fillColor=none;top=0;left=0;bottom=0;right=0;pointerEvents=1;fontSize=16;strokeWidth=1;fontColor=#000000;" parent="46" vertex="1">
          <mxGeometry width="57" height="24" as="geometry">
            <mxRectangle width="57" height="24" as="alternateBounds" />
          </mxGeometry>
        </mxCell>
        <mxCell id="48" style="shape=partialRectangle;html=1;whiteSpace=wrap;connectable=0;strokeColor=inherit;overflow=hidden;fillColor=none;top=0;left=0;bottom=0;right=0;pointerEvents=1;fontSize=16;strokeWidth=1;fontColor=#000000;" parent="46" vertex="1">
          <mxGeometry x="57" width="57" height="24" as="geometry">
            <mxRectangle width="57" height="24" as="alternateBounds" />
          </mxGeometry>
        </mxCell>
        <mxCell id="49" value="" style="shape=partialRectangle;html=1;whiteSpace=wrap;connectable=0;strokeColor=inherit;overflow=hidden;fillColor=none;top=0;left=0;bottom=0;right=0;pointerEvents=1;fontSize=16;strokeWidth=1;fontColor=#000000;" parent="46" vertex="1">
          <mxGeometry x="114" width="420" height="24" as="geometry">
            <mxRectangle width="420" height="24" as="alternateBounds" />
          </mxGeometry>
        </mxCell>
        <mxCell id="50" value="" style="shape=partialRectangle;html=1;whiteSpace=wrap;connectable=0;strokeColor=inherit;overflow=hidden;fillColor=none;top=0;left=0;bottom=0;right=0;pointerEvents=1;fontSize=16;strokeWidth=1;fontColor=#000000;" parent="46" vertex="1">
          <mxGeometry x="534" width="54" height="24" as="geometry">
            <mxRectangle width="54" height="24" as="alternateBounds" />
          </mxGeometry>
        </mxCell>
        <mxCell id="51" style="shape=partialRectangle;html=1;whiteSpace=wrap;connectable=0;strokeColor=inherit;overflow=hidden;fillColor=none;top=0;left=0;bottom=0;right=0;pointerEvents=1;fontSize=16;strokeWidth=1;fontColor=#000000;" parent="46" vertex="1">
          <mxGeometry x="588" width="54" height="24" as="geometry">
            <mxRectangle width="54" height="24" as="alternateBounds" />
          </mxGeometry>
        </mxCell>
        <mxCell id="52" style="shape=partialRectangle;html=1;whiteSpace=wrap;connectable=0;strokeColor=inherit;overflow=hidden;fillColor=none;top=0;left=0;bottom=0;right=0;pointerEvents=1;fontSize=16;strokeWidth=1;fontColor=#000000;" parent="46" vertex="1">
          <mxGeometry x="642" width="53" height="24" as="geometry">
            <mxRectangle width="53" height="24" as="alternateBounds" />
          </mxGeometry>
        </mxCell>
        <mxCell id="53" style="shape=tableRow;horizontal=0;startSize=0;swimlaneHead=0;swimlaneBody=0;strokeColor=inherit;top=0;left=0;bottom=0;right=0;collapsible=0;dropTarget=0;fillColor=none;points=[[0,0.5],[1,0.5]];portConstraint=eastwest;fontSize=16;strokeWidth=1;fontColor=#000000;" parent="38" vertex="1">
          <mxGeometry y="78" width="695" height="25" as="geometry" />
        </mxCell>
        <mxCell id="54" style="shape=partialRectangle;html=1;whiteSpace=wrap;connectable=0;strokeColor=inherit;overflow=hidden;fillColor=none;top=0;left=0;bottom=0;right=0;pointerEvents=1;fontSize=16;strokeWidth=1;fontColor=#000000;" parent="53" vertex="1">
          <mxGeometry width="57" height="25" as="geometry">
            <mxRectangle width="57" height="25" as="alternateBounds" />
          </mxGeometry>
        </mxCell>
        <mxCell id="55" style="shape=partialRectangle;html=1;whiteSpace=wrap;connectable=0;strokeColor=inherit;overflow=hidden;fillColor=none;top=0;left=0;bottom=0;right=0;pointerEvents=1;fontSize=16;strokeWidth=1;fontColor=#000000;" parent="53" vertex="1">
          <mxGeometry x="57" width="57" height="25" as="geometry">
            <mxRectangle width="57" height="25" as="alternateBounds" />
          </mxGeometry>
        </mxCell>
        <mxCell id="56" style="shape=partialRectangle;html=1;whiteSpace=wrap;connectable=0;strokeColor=inherit;overflow=hidden;fillColor=none;top=0;left=0;bottom=0;right=0;pointerEvents=1;fontSize=16;strokeWidth=1;fontColor=#000000;" parent="53" vertex="1">
          <mxGeometry x="114" width="420" height="25" as="geometry">
            <mxRectangle width="420" height="25" as="alternateBounds" />
          </mxGeometry>
        </mxCell>
        <mxCell id="57" style="shape=partialRectangle;html=1;whiteSpace=wrap;connectable=0;strokeColor=inherit;overflow=hidden;fillColor=none;top=0;left=0;bottom=0;right=0;pointerEvents=1;fontSize=16;strokeWidth=1;fontColor=#000000;" parent="53" vertex="1">
          <mxGeometry x="534" width="54" height="25" as="geometry">
            <mxRectangle width="54" height="25" as="alternateBounds" />
          </mxGeometry>
        </mxCell>
        <mxCell id="58" style="shape=partialRectangle;html=1;whiteSpace=wrap;connectable=0;strokeColor=inherit;overflow=hidden;fillColor=none;top=0;left=0;bottom=0;right=0;pointerEvents=1;fontSize=16;strokeWidth=1;fontColor=#000000;" parent="53" vertex="1">
          <mxGeometry x="588" width="54" height="25" as="geometry">
            <mxRectangle width="54" height="25" as="alternateBounds" />
          </mxGeometry>
        </mxCell>
        <mxCell id="59" style="shape=partialRectangle;html=1;whiteSpace=wrap;connectable=0;strokeColor=inherit;overflow=hidden;fillColor=none;top=0;left=0;bottom=0;right=0;pointerEvents=1;fontSize=16;strokeWidth=1;fontColor=#000000;" parent="53" vertex="1">
          <mxGeometry x="642" width="53" height="25" as="geometry">
            <mxRectangle width="53" height="25" as="alternateBounds" />
          </mxGeometry>
        </mxCell>
        <mxCell id="60" style="shape=tableRow;horizontal=0;startSize=0;swimlaneHead=0;swimlaneBody=0;strokeColor=inherit;top=0;left=0;bottom=0;right=0;collapsible=0;dropTarget=0;fillColor=none;points=[[0,0.5],[1,0.5]];portConstraint=eastwest;fontSize=16;strokeWidth=1;fontColor=#000000;" parent="38" vertex="1">
          <mxGeometry y="103" width="695" height="24" as="geometry" />
        </mxCell>
        <mxCell id="61" style="shape=partialRectangle;html=1;whiteSpace=wrap;connectable=0;strokeColor=inherit;overflow=hidden;fillColor=none;top=0;left=0;bottom=0;right=0;pointerEvents=1;fontSize=16;strokeWidth=1;fontColor=#000000;" parent="60" vertex="1">
          <mxGeometry width="57" height="24" as="geometry">
            <mxRectangle width="57" height="24" as="alternateBounds" />
          </mxGeometry>
        </mxCell>
        <mxCell id="62" style="shape=partialRectangle;html=1;whiteSpace=wrap;connectable=0;strokeColor=inherit;overflow=hidden;fillColor=none;top=0;left=0;bottom=0;right=0;pointerEvents=1;fontSize=16;strokeWidth=1;fontColor=#000000;" parent="60" vertex="1">
          <mxGeometry x="57" width="57" height="24" as="geometry">
            <mxRectangle width="57" height="24" as="alternateBounds" />
          </mxGeometry>
        </mxCell>
        <mxCell id="63" style="shape=partialRectangle;html=1;whiteSpace=wrap;connectable=0;strokeColor=inherit;overflow=hidden;fillColor=none;top=0;left=0;bottom=0;right=0;pointerEvents=1;fontSize=16;strokeWidth=1;fontColor=#000000;" parent="60" vertex="1">
          <mxGeometry x="114" width="420" height="24" as="geometry">
            <mxRectangle width="420" height="24" as="alternateBounds" />
          </mxGeometry>
        </mxCell>
        <mxCell id="64" style="shape=partialRectangle;html=1;whiteSpace=wrap;connectable=0;strokeColor=inherit;overflow=hidden;fillColor=none;top=0;left=0;bottom=0;right=0;pointerEvents=1;fontSize=16;strokeWidth=1;fontColor=#000000;" parent="60" vertex="1">
          <mxGeometry x="534" width="54" height="24" as="geometry">
            <mxRectangle width="54" height="24" as="alternateBounds" />
          </mxGeometry>
        </mxCell>
        <mxCell id="65" style="shape=partialRectangle;html=1;whiteSpace=wrap;connectable=0;strokeColor=inherit;overflow=hidden;fillColor=none;top=0;left=0;bottom=0;right=0;pointerEvents=1;fontSize=16;strokeWidth=1;fontColor=#000000;" parent="60" vertex="1">
          <mxGeometry x="588" width="54" height="24" as="geometry">
            <mxRectangle width="54" height="24" as="alternateBounds" />
          </mxGeometry>
        </mxCell>
        <mxCell id="66" style="shape=partialRectangle;html=1;whiteSpace=wrap;connectable=0;strokeColor=inherit;overflow=hidden;fillColor=none;top=0;left=0;bottom=0;right=0;pointerEvents=1;fontSize=16;strokeWidth=1;fontColor=#000000;" parent="60" vertex="1">
          <mxGeometry x="642" width="53" height="24" as="geometry">
            <mxRectangle width="53" height="24" as="alternateBounds" />
          </mxGeometry>
        </mxCell>
        <mxCell id="67" style="shape=tableRow;horizontal=0;startSize=0;swimlaneHead=0;swimlaneBody=0;strokeColor=inherit;top=0;left=0;bottom=0;right=0;collapsible=0;dropTarget=0;fillColor=none;points=[[0,0.5],[1,0.5]];portConstraint=eastwest;fontSize=16;strokeWidth=1;fontColor=#000000;" parent="38" vertex="1">
          <mxGeometry y="127" width="695" height="25" as="geometry" />
        </mxCell>
        <mxCell id="68" style="shape=partialRectangle;html=1;whiteSpace=wrap;connectable=0;strokeColor=inherit;overflow=hidden;fillColor=none;top=0;left=0;bottom=0;right=0;pointerEvents=1;fontSize=16;strokeWidth=1;fontColor=#000000;" parent="67" vertex="1">
          <mxGeometry width="57" height="25" as="geometry">
            <mxRectangle width="57" height="25" as="alternateBounds" />
          </mxGeometry>
        </mxCell>
        <mxCell id="69" style="shape=partialRectangle;html=1;whiteSpace=wrap;connectable=0;strokeColor=inherit;overflow=hidden;fillColor=none;top=0;left=0;bottom=0;right=0;pointerEvents=1;fontSize=16;strokeWidth=1;fontColor=#000000;" parent="67" vertex="1">
          <mxGeometry x="57" width="57" height="25" as="geometry">
            <mxRectangle width="57" height="25" as="alternateBounds" />
          </mxGeometry>
        </mxCell>
        <mxCell id="70" style="shape=partialRectangle;html=1;whiteSpace=wrap;connectable=0;strokeColor=inherit;overflow=hidden;fillColor=none;top=0;left=0;bottom=0;right=0;pointerEvents=1;fontSize=16;strokeWidth=1;fontColor=#000000;" parent="67" vertex="1">
          <mxGeometry x="114" width="420" height="25" as="geometry">
            <mxRectangle width="420" height="25" as="alternateBounds" />
          </mxGeometry>
        </mxCell>
        <mxCell id="71" style="shape=partialRectangle;html=1;whiteSpace=wrap;connectable=0;strokeColor=inherit;overflow=hidden;fillColor=none;top=0;left=0;bottom=0;right=0;pointerEvents=1;fontSize=16;strokeWidth=1;fontColor=#000000;" parent="67" vertex="1">
          <mxGeometry x="534" width="54" height="25" as="geometry">
            <mxRectangle width="54" height="25" as="alternateBounds" />
          </mxGeometry>
        </mxCell>
        <mxCell id="72" style="shape=partialRectangle;html=1;whiteSpace=wrap;connectable=0;strokeColor=inherit;overflow=hidden;fillColor=none;top=0;left=0;bottom=0;right=0;pointerEvents=1;fontSize=16;strokeWidth=1;fontColor=#000000;" parent="67" vertex="1">
          <mxGeometry x="588" width="54" height="25" as="geometry">
            <mxRectangle width="54" height="25" as="alternateBounds" />
          </mxGeometry>
        </mxCell>
        <mxCell id="73" style="shape=partialRectangle;html=1;whiteSpace=wrap;connectable=0;strokeColor=inherit;overflow=hidden;fillColor=none;top=0;left=0;bottom=0;right=0;pointerEvents=1;fontSize=16;strokeWidth=1;fontColor=#000000;" parent="67" vertex="1">
          <mxGeometry x="642" width="53" height="25" as="geometry">
            <mxRectangle width="53" height="25" as="alternateBounds" />
          </mxGeometry>
        </mxCell>
        <mxCell id="74" style="shape=tableRow;horizontal=0;startSize=0;swimlaneHead=0;swimlaneBody=0;strokeColor=inherit;top=0;left=0;bottom=0;right=0;collapsible=0;dropTarget=0;fillColor=none;points=[[0,0.5],[1,0.5]];portConstraint=eastwest;fontSize=16;strokeWidth=1;fontColor=#000000;" parent="38" vertex="1">
          <mxGeometry y="152" width="695" height="24" as="geometry" />
        </mxCell>
        <mxCell id="75" style="shape=partialRectangle;html=1;whiteSpace=wrap;connectable=0;strokeColor=inherit;overflow=hidden;fillColor=none;top=0;left=0;bottom=0;right=0;pointerEvents=1;fontSize=16;strokeWidth=1;fontColor=#000000;" parent="74" vertex="1">
          <mxGeometry width="57" height="24" as="geometry">
            <mxRectangle width="57" height="24" as="alternateBounds" />
          </mxGeometry>
        </mxCell>
        <mxCell id="76" style="shape=partialRectangle;html=1;whiteSpace=wrap;connectable=0;strokeColor=inherit;overflow=hidden;fillColor=none;top=0;left=0;bottom=0;right=0;pointerEvents=1;fontSize=16;strokeWidth=1;fontColor=#000000;" parent="74" vertex="1">
          <mxGeometry x="57" width="57" height="24" as="geometry">
            <mxRectangle width="57" height="24" as="alternateBounds" />
          </mxGeometry>
        </mxCell>
        <mxCell id="77" style="shape=partialRectangle;html=1;whiteSpace=wrap;connectable=0;strokeColor=inherit;overflow=hidden;fillColor=none;top=0;left=0;bottom=0;right=0;pointerEvents=1;fontSize=16;strokeWidth=1;fontColor=#000000;" parent="74" vertex="1">
          <mxGeometry x="114" width="420" height="24" as="geometry">
            <mxRectangle width="420" height="24" as="alternateBounds" />
          </mxGeometry>
        </mxCell>
        <mxCell id="78" style="shape=partialRectangle;html=1;whiteSpace=wrap;connectable=0;strokeColor=inherit;overflow=hidden;fillColor=none;top=0;left=0;bottom=0;right=0;pointerEvents=1;fontSize=16;strokeWidth=1;fontColor=#000000;" parent="74" vertex="1">
          <mxGeometry x="534" width="54" height="24" as="geometry">
            <mxRectangle width="54" height="24" as="alternateBounds" />
          </mxGeometry>
        </mxCell>
        <mxCell id="79" style="shape=partialRectangle;html=1;whiteSpace=wrap;connectable=0;strokeColor=inherit;overflow=hidden;fillColor=none;top=0;left=0;bottom=0;right=0;pointerEvents=1;fontSize=16;strokeWidth=1;fontColor=#000000;" parent="74" vertex="1">
          <mxGeometry x="588" width="54" height="24" as="geometry">
            <mxRectangle width="54" height="24" as="alternateBounds" />
          </mxGeometry>
        </mxCell>
        <mxCell id="80" style="shape=partialRectangle;html=1;whiteSpace=wrap;connectable=0;strokeColor=inherit;overflow=hidden;fillColor=none;top=0;left=0;bottom=0;right=0;pointerEvents=1;fontSize=16;strokeWidth=1;fontColor=#000000;" parent="74" vertex="1">
          <mxGeometry x="642" width="53" height="24" as="geometry">
            <mxRectangle width="53" height="24" as="alternateBounds" />
          </mxGeometry>
        </mxCell>
        <mxCell id="81" value="" style="shape=tableRow;horizontal=0;startSize=0;swimlaneHead=0;swimlaneBody=0;strokeColor=inherit;top=0;left=0;bottom=0;right=0;collapsible=0;dropTarget=0;fillColor=none;points=[[0,0.5],[1,0.5]];portConstraint=eastwest;fontSize=16;strokeWidth=1;fontColor=#000000;" parent="38" vertex="1">
          <mxGeometry y="176" width="695" height="24" as="geometry" />
        </mxCell>
        <mxCell id="82" value="" style="shape=partialRectangle;html=1;whiteSpace=wrap;connectable=0;strokeColor=inherit;overflow=hidden;fillColor=none;top=0;left=0;bottom=0;right=0;pointerEvents=1;fontSize=16;strokeWidth=1;fontColor=#000000;" parent="81" vertex="1">
          <mxGeometry width="57" height="24" as="geometry">
            <mxRectangle width="57" height="24" as="alternateBounds" />
          </mxGeometry>
        </mxCell>
        <mxCell id="83" style="shape=partialRectangle;html=1;whiteSpace=wrap;connectable=0;strokeColor=inherit;overflow=hidden;fillColor=none;top=0;left=0;bottom=0;right=0;pointerEvents=1;fontSize=16;strokeWidth=1;fontColor=#000000;" parent="81" vertex="1">
          <mxGeometry x="57" width="57" height="24" as="geometry">
            <mxRectangle width="57" height="24" as="alternateBounds" />
          </mxGeometry>
        </mxCell>
        <mxCell id="84" value="" style="shape=partialRectangle;html=1;whiteSpace=wrap;connectable=0;strokeColor=inherit;overflow=hidden;fillColor=none;top=0;left=0;bottom=0;right=0;pointerEvents=1;fontSize=16;strokeWidth=1;fontColor=#000000;" parent="81" vertex="1">
          <mxGeometry x="114" width="420" height="24" as="geometry">
            <mxRectangle width="420" height="24" as="alternateBounds" />
          </mxGeometry>
        </mxCell>
        <mxCell id="85" value="" style="shape=partialRectangle;html=1;whiteSpace=wrap;connectable=0;strokeColor=inherit;overflow=hidden;fillColor=none;top=0;left=0;bottom=0;right=0;pointerEvents=1;fontSize=16;strokeWidth=1;fontColor=#000000;" parent="81" vertex="1">
          <mxGeometry x="534" width="54" height="24" as="geometry">
            <mxRectangle width="54" height="24" as="alternateBounds" />
          </mxGeometry>
        </mxCell>
        <mxCell id="86" style="shape=partialRectangle;html=1;whiteSpace=wrap;connectable=0;strokeColor=inherit;overflow=hidden;fillColor=none;top=0;left=0;bottom=0;right=0;pointerEvents=1;fontSize=16;strokeWidth=1;fontColor=#000000;" parent="81" vertex="1">
          <mxGeometry x="588" width="54" height="24" as="geometry">
            <mxRectangle width="54" height="24" as="alternateBounds" />
          </mxGeometry>
        </mxCell>
        <mxCell id="87" style="shape=partialRectangle;html=1;whiteSpace=wrap;connectable=0;strokeColor=inherit;overflow=hidden;fillColor=none;top=0;left=0;bottom=0;right=0;pointerEvents=1;fontSize=16;strokeWidth=1;fontColor=#000000;" parent="81" vertex="1">
          <mxGeometry x="642" width="53" height="24" as="geometry">
            <mxRectangle width="53" height="24" as="alternateBounds" />
          </mxGeometry>
        </mxCell>
        <mxCell id="88" value="&lt;p style=&quot;text-align: left; border-color: var(--border-color); line-height: 10.4px; font-size: 11px;&quot;&gt;&lt;font style=&quot;font-size: 11px;&quot;&gt;Lorem ipsum dolor sit amet, consectetur adipiscing elit. Integer sollicitudin velit ex, eu cursus diam molestie eget. Sed sodales tellus in rhoncus interdum. Proin vulputate urna tortor, in elementum eros pretium sit amet. Integer finibus tortor non metus ultricies, eget condimentum mi euismod.&amp;nbsp;&lt;/font&gt;&lt;/p&gt;&lt;p&gt;&lt;/p&gt;&lt;ul style=&quot;&quot;&gt;&lt;li style=&quot;text-align: left;&quot;&gt;&lt;font style=&quot;font-size: 11px;&quot;&gt;Nam maximus eget odio sed ullamcorper. Quisque a finibus nulla.&amp;nbsp;&lt;/font&gt;&lt;/li&gt;&lt;/ul&gt;&lt;ul style=&quot;&quot;&gt;&lt;li style=&quot;text-align: left;&quot;&gt;&lt;font style=&quot;font-size: 11px;&quot;&gt;&lt;font style=&quot;font-size: 11px;&quot;&gt;V&lt;/font&gt;estibulum quis tellus mattis, convallis ante eu, condimentum risus.&amp;nbsp;&lt;/font&gt;&lt;/li&gt;&lt;/ul&gt;&lt;ul style=&quot;&quot;&gt;&lt;li style=&quot;text-align: left;&quot;&gt;&lt;font style=&quot;font-size: 11px;&quot;&gt;Etiam vitae odio posuere, sodales leo sed, cursus felis.&amp;nbsp;&lt;/font&gt;&lt;/li&gt;&lt;/ul&gt;&lt;p&gt;&lt;/p&gt;&lt;p style=&quot;text-align: left;&quot;&gt;&lt;span style=&quot;background-color: initial; font-size: 11px;&quot;&gt;Nullam metus sem, suscipit hendrerit tellus non, luctus efficitur velit. Aliquam eu ullamcorper nibh, et imperdiet justo. Sed sit amet leo lobortis, mattis magna vitae, luctus ipsum. Ut mattis tellus sed lacinia porta. Nam elit justo, ultrices in elementum ac, ultrices in turpis. Proin vitae egestas sem, lobortis sollicitudin sem.&lt;/span&gt;&lt;br&gt;&lt;/p&gt;&lt;p&gt;&lt;/p&gt;" style="text;html=1;strokeColor=none;fillColor=none;align=center;verticalAlign=middle;whiteSpace=wrap;rounded=0;fontSize=6;fontColor=#000000;fontStyle=0;fontFamily=Helvetica;" parent="1" vertex="1">
          <mxGeometry x="80" y="1580" width="670" height="150" as="geometry" />
        </mxCell>
        <mxCell id="89" value="&lt;b&gt;BON POUR EXECUTION&lt;/b&gt;" style="rounded=0;whiteSpace=wrap;html=1;fillColor=none;strokeWidth=5;strokeColor=#000000;fontSize=26;container=0;fontColor=#000000;" parent="1" vertex="1">
          <mxGeometry x="292.5" y="1780" width="240" height="90" as="geometry" />
        </mxCell>
        <mxCell id="90" value="&lt;b&gt;BON POUR FABRICATION&lt;/b&gt;" style="rounded=0;whiteSpace=wrap;html=1;fillColor=none;strokeWidth=5;strokeColor=#000000;fontSize=26;container=0;fontColor=#000000;" parent="1" vertex="1">
          <mxGeometry x="-280" y="1890" width="240" height="90" as="geometry" />
        </mxCell>
        <mxCell id="91" value="&lt;b&gt;BON POUR EXECUTION&lt;/b&gt;" style="rounded=0;whiteSpace=wrap;html=1;fillColor=none;strokeWidth=5;strokeColor=#000000;fontSize=26;container=0;fontColor=#000000;" parent="1" vertex="1">
          <mxGeometry x="-280" y="2020" width="240" height="90" as="geometry" />
        </mxCell>
        <mxCell id="92" value="&lt;b&gt;TEL QUE CONSTRUIT&lt;/b&gt;" style="rounded=0;whiteSpace=wrap;html=1;fillColor=none;strokeWidth=5;strokeColor=#000000;fontSize=26;container=0;fontColor=#000000;" parent="1" vertex="1">
          <mxGeometry x="-280" y="2150" width="240" height="90" as="geometry" />
        </mxCell>
        <mxCell id="93" value="Nom du projet" style="text;html=1;strokeColor=none;fillColor=none;align=center;verticalAlign=middle;whiteSpace=wrap;rounded=0;fontSize=26;fontColor=#000000;fontStyle=1" parent="1" vertex="1">
          <mxGeometry x="217.5" y="1250" width="390" height="70" as="geometry" />
        </mxCell>
        <mxCell id="94" style="edgeStyle=orthogonalEdgeStyle;rounded=0;orthogonalLoop=1;jettySize=auto;html=1;dashed=1;strokeColor=#808080;strokeWidth=2;fontFamily=Helvetica;fontSize=26;fontColor=#000000;startArrow=none;startFill=0;sourcePerimeterSpacing=0;targetPerimeterSpacing=0;" parent="1" source="95" target="96" edge="1">
          <mxGeometry relative="1" as="geometry" />
        </mxCell>
        <mxCell id="95" value="" style="rounded=0;whiteSpace=wrap;html=1;strokeColor=#808080;strokeWidth=2;fontSize=26;fontColor=#000000;fillColor=none;dashed=1;" parent="1" vertex="1">
          <mxGeometry x="58" y="1760" width="710" height="130" as="geometry" />
        </mxCell>
        <mxCell id="96" value="Zone pour tampons d&#39;état" style="text;html=1;strokeColor=none;fillColor=none;align=center;verticalAlign=middle;whiteSpace=wrap;rounded=0;fontSize=16;fontColor=#000000;" parent="1" vertex="1">
          <mxGeometry x="-280" y="1797.5" width="240" height="55" as="geometry" />
        </mxCell>
        <mxCell id="97" value="Nature et destination du document" style="text;html=1;strokeColor=none;fillColor=none;align=center;verticalAlign=middle;whiteSpace=wrap;rounded=0;fontSize=16;fontColor=#000000;" parent="1" vertex="1">
          <mxGeometry x="-280" y="1627.5" width="240" height="55" as="geometry" />
        </mxCell>
        <mxCell id="98" style="edgeStyle=orthogonalEdgeStyle;rounded=0;orthogonalLoop=1;jettySize=auto;html=1;dashed=1;strokeColor=#808080;strokeWidth=2;fontFamily=Helvetica;fontSize=26;fontColor=#000000;startArrow=none;startFill=0;sourcePerimeterSpacing=0;targetPerimeterSpacing=0;exitX=0;exitY=0.5;exitDx=0;exitDy=0;" parent="1" source="29" target="97" edge="1">
          <mxGeometry relative="1" as="geometry">
            <mxPoint x="-32" y="1700" as="sourcePoint" />
            <mxPoint x="-130" y="1700" as="targetPoint" />
          </mxGeometry>
        </mxCell>
        <mxCell id="99" value="&lt;b&gt;NON PROTEGE&lt;/b&gt;" style="rounded=0;whiteSpace=wrap;html=1;fillColor=none;strokeWidth=5;strokeColor=#000000;fontSize=26;container=0;fontColor=#000000;" parent="1" vertex="1">
          <mxGeometry x="880" y="2160" width="240" height="90" as="geometry" />
        </mxCell>
        <mxCell id="100" value="&lt;b&gt;VALIDE PHASE PROJET&lt;/b&gt;" style="rounded=0;whiteSpace=wrap;html=1;fillColor=none;strokeWidth=5;strokeColor=#000000;fontSize=26;container=0;fontColor=#000000;" parent="1" vertex="1">
          <mxGeometry x="-550" y="1890" width="240" height="90" as="geometry" />
        </mxCell>
        <mxCell id="101" value="&lt;b&gt;VALIDE PHASE AVANT PROJET&lt;/b&gt;" style="rounded=0;whiteSpace=wrap;html=1;fillColor=none;strokeWidth=5;strokeColor=#000000;fontSize=26;container=0;fontColor=#000000;" parent="1" vertex="1">
          <mxGeometry x="-550" y="2020" width="240" height="90" as="geometry" />
        </mxCell>
        <mxCell id="102" value="&lt;b&gt;EN COURS&lt;/b&gt;" style="rounded=0;whiteSpace=wrap;html=1;fillColor=none;strokeWidth=5;strokeColor=#000000;fontSize=26;container=0;fontColor=#000000;" parent="1" vertex="1">
          <mxGeometry x="-820" y="1890" width="240" height="90" as="geometry" />
        </mxCell>
      </root>
    </mxGraphModel>
  </diagram>
</mxfile>
